<?xml version="1.0" encoding="UTF-8"?>
<!-- Generator: visioncortex VTracer 0.6.3 -->
<svg version="1.1" xmlns="http://www.w3.org/2000/svg" width="245" height="245">
<path d="M0 0 C0.68 0.17 1.36 0.33 2.05 0.5 C18.57 4.6 32.33 12 46 22 C46.99 22.66 47.98 23.32 49 24 C49 24.66 49 25.32 49 26 C49.87 26.39 49.87 26.39 50.75 26.8 C56.85 30.06 61.9 35.5 66 41 C66 41.66 66 42.32 66 43 C66.66 43 67.32 43 68 43 C68.99 45.47 68.99 45.47 70 48 C70.66 48 71.32 48 72 48 C73.56 50.31 74.98 52.6 76.38 55 C76.78 55.69 77.19 56.39 77.61 57.11 C88.67 76.12 93.57 95.8 93.39 117.71 C93.38 120 93.39 122.29 93.41 124.58 C93.44 146.87 87.4 166.05 76.1 185.14 C75.15 186.75 74.23 188.39 73.32 190.02 C72.88 190.68 72.45 191.33 72 192 C71.34 192 70.68 192 70 192 C69.34 193.65 68.68 195.3 68 197 C67.34 197 66.68 197 66 197 C65.62 197.85 65.62 197.85 65.24 198.72 C62.04 204.62 56.54 210.25 51 214 C50.34 214 49.68 214 49 214 C49 214.66 49 215.32 49 216 C29.82 231.15 6.55 242.06 -18.21 242.2 C-18.99 242.21 -19.76 242.21 -20.56 242.22 C-22.19 242.23 -23.82 242.24 -25.46 242.24 C-27.9 242.25 -30.34 242.28 -32.78 242.31 C-58.47 242.49 -84 234.59 -104 218 C-102.43 214.14 -99.99 211.86 -97 209 C-95.87 207.88 -94.75 206.75 -93.62 205.62 C-86.37 198.37 -86.37 198.37 -84.64 196.64 C-83.15 195.15 -81.68 193.65 -80.21 192.14 C-78.18 190.18 -76.59 189.05 -74 188 C-74 187.34 -74 186.68 -74 186 C-73.34 186 -72.68 186 -72 186 C-72 185.34 -72 184.68 -72 184 C-71.34 184 -70.68 184 -70 184 C-70 183.34 -70 182.68 -70 182 C-66.76 182.4 -64.23 183.31 -61.38 184.81 C-50.63 190.37 -40.53 192.18 -28.56 192.19 C-27.77 192.2 -26.97 192.21 -26.15 192.22 C-20.52 192.24 -15.45 191.41 -10 190 C-8.69 189.7 -8.69 189.7 -7.36 189.39 C3.24 186.55 16 179.8 22.62 170.79 C23.08 170.2 23.53 169.61 24 169 C24.66 169 25.32 169 26 169 C26 168.34 26 167.68 26 167 C26.66 167 27.32 167 28 167 C28.26 166.27 28.52 165.53 28.79 164.77 C30.01 161.97 31.42 160.01 33.31 157.62 C43.44 143.5 44.44 124.83 42.69 108.03 C42.25 105.63 41.68 103.34 41 101 C40.6 99.56 40.6 99.56 40.19 98.09 C37.8 90.22 34.38 83.33 29.32 76.84 C28 75 28 75 28 73 C27.34 73 26.68 73 26 73 C26 72.34 26 71.68 26 71 C25.34 71 24.68 71 24 71 C24 70.34 24 69.68 24 69 C23.34 69 22.68 69 22 69 C21.44 68.26 20.89 67.52 20.31 66.75 C17.48 63.39 14.88 62.01 11 60 C11 59.34 11 58.68 11 58 C10.11 57.73 9.23 57.46 8.31 57.19 C5 56 5 56 2.66 54.56 C-0.14 52.92 -2.8 51.89 -5.88 50.88 C-6.86 50.54 -7.85 50.21 -8.87 49.87 C-20.78 46.57 -36.13 46.37 -48 50 C-49.08 50.32 -50.17 50.64 -51.29 50.96 C-59.04 53.47 -65.1 56.67 -71.67 61.43 C-74 63 -74 63 -76 63 C-76 63.66 -76 64.32 -76 65 C-76.66 65 -77.32 65 -78 65 C-78 65.66 -78 66.32 -78 67 C-79.12 68.12 -80.24 69.23 -81.38 70.33 C-90.01 79.19 -95.69 89.12 -99 101 C-99.21 101.71 -99.41 102.42 -99.62 103.15 C-103.59 119.27 -101.35 137.22 -93.93 152.01 C-92.72 154.6 -91.89 157.28 -91 160 C-93.75 162.78 -96.51 165.55 -99.27 168.33 C-100.67 169.73 -102.06 171.13 -103.45 172.54 C-104.34 173.43 -105.22 174.32 -106.14 175.23 C-106.95 176.05 -107.76 176.87 -108.6 177.71 C-111 180 -111 180 -113.74 182.17 C-116.07 183.8 -116.07 183.8 -117 186 C-117.66 186 -118.32 186 -119 186 C-119 186.66 -119 187.32 -119 188 C-119.66 188 -120.32 188 -121 188 C-121 188.66 -121 189.32 -121 190 C-121.66 190 -122.32 190 -123 190 C-123 190.66 -123 191.32 -123 192 C-124.98 192.99 -124.98 192.99 -127 194 C-133.7 186.89 -133.7 186.89 -134 182 C-134.66 182 -135.32 182 -136 182 C-142.86 167.8 -148.25 154.61 -151 139 C-151.17 138.06 -151.35 137.12 -151.53 136.15 C-154.96 113.27 -151.03 89.67 -141 69 C-140.06 66.94 -139.12 64.88 -138.19 62.81 C-137.46 61.21 -136.73 59.6 -136 58 C-135.34 58 -134.68 58 -134 58 C-133.91 57.27 -133.82 56.55 -133.73 55.8 C-132.86 52.48 -131.53 50.8 -129.31 48.19 C-126.11 44.36 -123.11 40.47 -120.23 36.4 C-119.82 35.94 -119.42 35.48 -119 35 C-118.34 35 -117.68 35 -117 35 C-116.74 34.4 -116.48 33.81 -116.21 33.19 C-114.91 30.83 -113.67 29.63 -111.59 27.94 C-110.91 27.39 -110.23 26.84 -109.53 26.27 C-108.82 25.71 -108.11 25.14 -107.38 24.56 C-106.69 24 -106 23.44 -105.29 22.87 C-98.24 17.19 -90.9 12.73 -82.69 8.94 C-81.94 8.59 -81.2 8.25 -80.43 7.89 C-69.39 2.84 -58.91 0.03 -47 -2 C-45.82 -2.26 -45.82 -2.26 -44.63 -2.53 C-30.35 -5.11 -13.95 -3.64 0 0 Z " fill="#4197B5" transform="translate(152,3)"/>
<path d="M0 0 C8.63 7.79 14.17 16.71 15.21 28.49 C15.35 41.99 12.37 52.89 2.77 62.89 C-6.57 71.61 -15.71 74.7 -28.57 74.7 C-38.06 74.17 -45.03 71.58 -53.12 66.7 C-53.12 66.04 -53.12 65.38 -53.12 64.7 C-53.78 64.7 -54.44 64.7 -55.12 64.7 C-55.12 64.04 -55.12 63.38 -55.12 62.7 C-55.78 62.7 -56.44 62.7 -57.12 62.7 C-57.12 62.04 -57.12 61.38 -57.12 60.7 C-57.78 60.7 -58.44 60.7 -59.12 60.7 C-59.12 60.04 -59.12 59.38 -59.12 58.7 C-59.78 58.7 -60.44 58.7 -61.12 58.7 C-61.92 57.32 -62.71 55.95 -63.5 54.57 C-64.16 53.42 -64.16 53.42 -64.83 52.25 C-69.37 43.26 -70.57 31.51 -68.12 21.7 C-66.24 16.42 -64.23 11.36 -61.12 6.7 C-60.46 6.7 -59.8 6.7 -59.12 6.7 C-59.12 6.04 -59.12 5.38 -59.12 4.7 C-58.46 4.7 -57.8 4.7 -57.12 4.7 C-57.12 4.04 -57.12 3.38 -57.12 2.7 C-56.46 2.7 -55.8 2.7 -55.12 2.7 C-55.12 2.04 -55.12 1.38 -55.12 0.7 C-54.46 0.7 -53.8 0.7 -53.12 0.7 C-53.12 0.04 -53.12 -0.62 -53.12 -1.3 C-36.6 -11.83 -15.7 -12.63 0 0 Z " fill="#4197B5" transform="translate(150.12109375,90.3046875)"/>
</svg>
